<svg width="85" height="20" viewBox="0 0 85 20" xmlns="http://www.w3.org/2000/svg" shape-rendering="geometricPrecision">
  <!-- DARK -->
  <g id="logo-dark" fill-rule="evenodd" style="color:#333333">
    <!-- ICON -->
    <g transform="translate(1 1) scale(0.40)">
      <circle cx="22.5" cy="22.5" r="18.5"
              fill="none" stroke="currentColor" stroke-width="2.2"
              stroke-linecap="round" opacity="0.9"/>
      <g transform="translate(0 -1.3) translate(22.5 22.5) scale(1.28) translate(-22.5 -22.5)">
        <g fill="none" stroke="currentColor" stroke-width="3.0" stroke-linecap="round" stroke-linejoin="round">
          <path d="M22.5 14.6L30.2 19.0L22.5 23.4L14.8 19.0Z"/>
          <path d="M14.8 19.0V28.6L22.5 33.0L30.2 28.6V19.0"/>
          <path d="M22.5 23.4V33.0"/>
        </g>
      </g>
    </g>

    <!-- TEXT -->
    <text x="22" y="11"
          dominant-baseline="middle"
          font-family="ui-sans-serif, system-ui, -apple-system, Segoe UI, Roboto, Arial"
          font-size="7.1"
          font-weight="700"
          letter-spacing="0.35"
          fill="currentColor">UNIVAULTOFFICE</text>
  </g>

  <!-- LIGHT -->
  <g id="logo-light" fill-rule="evenodd" style="color:#ffffff">
    <!-- ICON -->
    <g transform="translate(1 1) scale(0.40)">
      <circle cx="22.5" cy="22.5" r="18.5"
              fill="none" stroke="currentColor" stroke-width="2.2"
              stroke-linecap="round" opacity="0.95"/>
      <g transform="translate(0 -1.3) translate(22.5 22.5) scale(1.28) translate(-22.5 -22.5)">
        <g fill="none" stroke="currentColor" stroke-width="3.0" stroke-linecap="round" stroke-linejoin="round">
          <path d="M22.5 14.6L30.2 19.0L22.5 23.4L14.8 19.0Z"/>
          <path d="M14.8 19.0V28.6L22.5 33.0L30.2 28.6V19.0"/>
          <path d="M22.5 23.4V33.0"/>
        </g>
      </g>
    </g>

    <!-- TEXT -->
    <text x="22" y="11"
          dominant-baseline="middle"
          font-family="ui-sans-serif, system-ui, -apple-system, Segoe UI, Roboto, Arial"
          font-size="7.1"
          font-weight="700"
          letter-spacing="0.35"
          fill="currentColor">UNIVAULTOFFICE</text>
  </g>
</svg>
